<?xml version="1.0" standalone="no"?>
<!DOCTYPE svg PUBLIC "-//W3C//DTD SVG 20010904//EN"
 "http://www.w3.org/TR/2001/REC-SVG-20010904/DTD/svg10.dtd">
<svg version="1.0" xmlns="http://www.w3.org/2000/svg"
 width="257.000000pt" height="251.000000pt" viewBox="0 0 257.000000 251.000000"
 preserveAspectRatio="xMidYMid meet">
<g transform="translate(0.000000,251.000000) scale(0.100000,-0.100000)"
fill="#000000" stroke="none">
<path d="M1199 2363 c-5 -16 -27 -68 -47 -117 l-37 -88 -80 -24 c-44 -13 -83
-23 -86 -24 -4 0 -51 32 -105 71 -54 39 -103 73 -108 75 -6 2 -84 -52 -173
-121 l-162 -125 35 -78 c20 -42 45 -98 56 -124 l20 -48 -34 -57 -34 -58 -131
-30 c-73 -17 -134 -33 -137 -35 -5 -5 -46 -346 -46 -381 0 -10 6 -19 14 -19
12 0 222 -95 234 -105 2 -2 10 -27 17 -56 l14 -53 -74 -119 c-47 -73 -72 -123
-68 -131 5 -7 62 -79 127 -160 90 -111 123 -145 135 -140 22 10 144 51 201 68
47 14 48 14 101 -18 l53 -32 29 -129 c16 -72 31 -135 32 -141 2 -6 51 -16 112
-23 59 -6 151 -17 203 -23 54 -6 95 -7 97 -2 2 5 27 62 56 128 l52 119 70 18
c39 10 72 19 75 19 3 0 52 -34 110 -75 58 -41 108 -75 112 -75 6 0 275 203
328 247 3 3 -16 65 -41 138 l-47 133 26 43 c14 24 30 47 35 50 5 4 66 19 135
34 70 15 132 29 138 30 12 4 15 16 40 243 12 99 14 156 8 162 -5 5 -63 29
-129 54 l-120 43 -23 80 -24 80 68 99 c37 54 74 104 82 111 11 10 -7 37 -110
164 -67 84 -125 157 -129 161 -3 4 -60 -17 -127 -47 -66 -30 -125 -55 -129
-55 -21 0 -142 73 -147 88 -7 25 -35 172 -39 207 -4 29 -5 30 -73 37 -38 5
-126 15 -195 23 -159 19 -148 20 -160 -12z m255 -443 c204 -52 354 -177 443
-368 87 -187 80 -406 -20 -597 -42 -80 -182 -220 -262 -262 -242 -126 -515
-104 -732 61 -258 195 -330 581 -161 863 90 151 246 266 417 308 85 20 225 18
315 -5z"/>
</g>
</svg>
